# xmcd
#
# Track frame offsets: 
#        150
#        17600
#        41540
#        60295
#        77590
#        104132
#        125207
#        152735
#        178745
#        200415
#        214782
#
# Disc length: 3113 seconds
#
# Revision: 2
# Processed by: cddbd v1.5.2PL0 Copyright (c) Steve Scherf et al.
# Submitted via: ExactAudioCopy v0.99pb4
#
DISCID=940c270b
DTITLE=Big Time Sarah And The BTS Express - Lay It On 'Em Girls
DYEAR=1992
DGENRE=Blues
TTITLE0=I Make Love
TTITLE1=Hoochie Coochie Woman
TTITLE2=Ain't No Sunshine
TTITLE3=Lay It On 'Em Girls
TTITLE4=Why My Man Won't Treat Me Right
TTITLE5=Thrill Is Gone
TTITLE6=Blues All Alone
TTITLE7=Summertime
TTITLE8=Evil Gal Blues
TTITLE9=I Just Want A Little Bit
TTITLE10=Every Man I See
EXTD=
EXTT0=
EXTT1=
EXTT2=
EXTT3=
EXTT4=
EXTT5=
EXTT6=
EXTT7=
EXTT8=
EXTT9=
EXTT10=
PLAYORDER=
